<?xml version="1.0" encoding="UTF-8" standalone="no"?>
<!DOCTYPE svg PUBLIC "-//W3C//DTD SVG 1.1//EN" "http://www.w3.org/Graphics/SVG/1.1/DTD/svg11.dtd">
<svg width="100%" height="100%" viewBox="0 0 42 42" version="1.1" xmlns="http://www.w3.org/2000/svg" xmlns:xlink="http://www.w3.org/1999/xlink" xml:space="preserve" xmlns:serif="http://www.serif.com/" style="fill-rule:evenodd;clip-rule:evenodd;">
    <g transform="matrix(0.610858,0,0,0.610858,15.804031,12.733637)">
        <path d="M31.011,17.532L25.238,17.532C25.18,17.531 25.125,17.507 25.084,17.466C25.044,17.424 25.021,17.369 25.021,17.311L25.021,11.542C25.021,11.398 24.964,11.26 24.862,11.159C24.761,11.057 24.623,11 24.479,11L18.075,11C17.931,11 17.793,11.057 17.691,11.159C17.59,11.26 17.532,11.398 17.532,11.542L17.532,17.311C17.532,17.37 17.509,17.426 17.468,17.468C17.426,17.509 17.37,17.532 17.311,17.532L11.542,17.532C11.398,17.532 11.26,17.59 11.159,17.691C11.057,17.793 11,17.931 11,18.075L11,24.479C11,24.623 11.057,24.761 11.159,24.862C11.26,24.964 11.398,25.021 11.542,25.021L17.311,25.021C17.37,25.021 17.426,25.044 17.468,25.086C17.509,25.127 17.532,25.184 17.532,25.242L17.532,31.011C17.532,31.155 17.59,31.293 17.691,31.395C17.793,31.496 17.931,31.553 18.075,31.553L24.479,31.553C24.623,31.553 24.761,31.496 24.862,31.395C24.964,31.293 25.021,31.155 25.021,31.011L25.021,25.252C25.021,25.194 25.044,25.139 25.084,25.097C25.125,25.056 25.18,25.032 25.238,25.031L31.011,25.031C31.155,25.031 31.293,24.974 31.395,24.872C31.496,24.77 31.553,24.633 31.553,24.489L31.553,18.084C31.555,18.012 31.541,17.941 31.515,17.874C31.488,17.807 31.449,17.746 31.398,17.695C31.348,17.643 31.288,17.603 31.221,17.575C31.155,17.547 31.083,17.532 31.011,17.532Z"/>
    </g>
    <circle cx="21" cy="21" r="19.182" style="fill:none;stroke:black;stroke-width:2px;"/>
    <g transform="matrix(0.651927,0,0,0.651927,6.994224,-0.474253)">
        <path d="M29.911,14.02C29.957,12.191 28.503,11.913 27.264,11.605C25.369,11.171 23.428,10.969 21.484,11.004C19.54,10.969 17.598,11.171 15.703,11.605C14.465,11.913 13.011,12.191 13.057,14.02C13.124,16.548 13.057,19.076 13.057,21.604C13.044,22.021 13.141,22.434 13.339,22.801C15.184,26.178 17.788,29.08 20.944,31.28C21.09,31.398 21.27,31.468 21.458,31.48C21.646,31.468 21.825,31.398 21.972,31.28C25.128,29.08 27.731,26.178 29.576,22.801C29.774,22.434 29.872,22.021 29.859,21.604C29.895,19.076 29.844,16.548 29.911,14.02Z" style="fill-rule:nonzero;"/>
    </g>
    <g transform="matrix(0.610672,0,0,0.610672,0.329037,13.570992)">
        <path d="M12.1,29.04L12.1,30.964C12.1,31.12 12.162,31.27 12.272,31.381C12.383,31.491 12.533,31.553 12.689,31.553L16.055,31.553C16.211,31.553 16.361,31.491 16.471,31.381C16.582,31.27 16.644,31.12 16.644,30.964L16.644,29.04L12.1,29.04Z" style="fill-rule:nonzero;"/>
    </g>
    <g transform="matrix(0.610672,0,0,0.610672,0.329037,13.570992)">
        <path d="M14.543,11.028C14.448,10.991 14.343,10.991 14.248,11.028C12.153,11.944 12.104,14.983 12.104,14.983L12.104,27.277L16.649,27.277L16.649,14.983C16.649,14.983 16.617,11.955 14.543,11.028Z" style="fill-rule:nonzero;"/>
    </g>
    <g transform="matrix(0.610672,0,0,0.610672,0.329037,13.570992)">
        <path d="M18.788,29.04L18.788,30.964C18.788,31.12 18.85,31.27 18.961,31.381C19.071,31.491 19.221,31.553 19.378,31.553L22.748,31.553C22.904,31.552 23.054,31.489 23.164,31.379C23.274,31.269 23.337,31.12 23.338,30.964L23.338,29.04L18.788,29.04Z" style="fill-rule:nonzero;"/>
    </g>
    <g transform="matrix(0.610672,0,0,0.610672,0.329037,13.570992)">
        <path d="M21.21,11.028C21.115,10.991 21.01,10.991 20.915,11.028C18.82,11.944 18.771,14.983 18.771,14.983L18.771,27.277L23.321,27.277L23.321,14.983C23.321,14.983 23.305,11.955 21.21,11.028Z" style="fill-rule:nonzero;"/>
    </g>
    <g transform="matrix(0.610672,0,0,0.610672,0.329037,13.570992)">
        <path d="M25.476,29.04L25.476,30.964C25.476,31.12 25.538,31.27 25.648,31.381C25.759,31.491 25.909,31.553 26.065,31.553L29.436,31.553C29.592,31.553 29.742,31.491 29.853,31.381C29.963,31.27 30.026,31.12 30.026,30.964L30.026,29.04L25.476,29.04Z" style="fill-rule:nonzero;"/>
    </g>
    <g transform="matrix(0.610672,0,0,0.610672,0.329037,13.570992)">
        <path d="M27.898,11.028C27.803,10.991 27.698,10.991 27.604,11.028C25.508,11.944 25.46,14.983 25.46,14.983L25.46,27.277L30.01,27.277L30.01,14.983C30.01,14.983 29.994,11.955 27.898,11.028Z" style="fill-rule:nonzero;"/>
    </g>
</svg>
